<svg xmlns="http://www.w3.org/2000/svg" viewBox="0 0 24 24"><path d="M8.65 5.1a2.4 2.4 0 0 0-2.36 1.93l-.62 3.07H5a2.4 2.4 0 0 0-2.4 2.4v3c0 .23.17.4.4.4h1.6v.6c0 .85.3 1.41.74 1.8.43.4 1.04.6 1.66.6.62 0 1.23-.2 1.66-.6.44-.39.74-.95.74-1.8v-.6h5.2v.6c0 .85.3 1.41.74 1.8.43.4 1.04.6 1.66.6.62 0 1.23-.2 1.66-.6.44-.39.74-.95.74-1.8v-.6H21a.4.4 0 0 0 .4-.4v-3a2.4 2.4 0 0 0-2.4-2.4h-.73l-1.4-3.5a2.4 2.4 0 0 0-2.22-1.5h-6zm.02.8h2.93v4.2H6.49l.58-2.92a1.6 1.6 0 0 1 1.6-1.28zm3.73 0h2.25c.65 0 1.24.4 1.48 1l1.28 3.2H12.4V5.9zm-7.4 5h14c.88 0 1.6.72 1.6 1.6v2.6h-1.64l-.18-.2a2.39 2.39 0 0 0-3.56 0l-.18.2H8.96l-.18-.2a2.39 2.39 0 0 0-3.56 0l-.18.2H3.4v-2.6c0-.88.72-1.6 1.6-1.6zm2.18 4.01A1.61 1.61 0 0 1 8.6 16.5c0 .88-.72 1.6-1.6 1.6-.69 0-1.25-.44-1.48-.99a1.6 1.6 0 0 1 1.2-2.18c.15-.03.3-.03.46-.02zm10 0a1.61 1.61 0 0 1 1.42 1.59c0 .88-.72 1.6-1.6 1.6-.69 0-1.25-.44-1.48-.99a1.6 1.6 0 0 1 1.2-2.18c.15-.03.3-.03.46-.02z" fill="#d7d7d7"/></svg>