<?xml version="1.0" encoding="UTF-8" standalone="no"?>
<svg
   xmlns:dc="http://purl.org/dc/elements/1.1/"
   xmlns:cc="http://creativecommons.org/ns#"
   xmlns:rdf="http://www.w3.org/1999/02/22-rdf-syntax-ns#"
   xmlns:svg="http://www.w3.org/2000/svg"
   xmlns="http://www.w3.org/2000/svg"
   xmlns:sodipodi="http://sodipodi.sourceforge.net/DTD/sodipodi-0.dtd"
   xmlns:inkscape="http://www.inkscape.org/namespaces/inkscape"
   width="18.451719pt"
   height="18pt"
   viewBox="0 0 18.451719 18"
   version="1.1"
   id="svg5"
   sodipodi:docname="github2.svg"
   inkscape:version="0.92.3 (2405546, 2018-03-11)">
  <metadata
     id="metadata11">
    <rdf:RDF>
      <cc:Work
         rdf:about="">
        <dc:format>image/svg+xml</dc:format>
        <dc:type
           rdf:resource="http://purl.org/dc/dcmitype/StillImage" />
      </cc:Work>
    </rdf:RDF>
  </metadata>
  <defs
     id="defs9" />
  <sodipodi:namedview
     pagecolor="#ffffff"
     bordercolor="#666666"
     borderopacity="1"
     objecttolerance="10"
     gridtolerance="10"
     guidetolerance="10"
     inkscape:pageopacity="0"
     inkscape:pageshadow="2"
     inkscape:window-width="1920"
     inkscape:window-height="1025"
     id="namedview7"
     showgrid="false"
     inkscape:zoom="20.85965"
     inkscape:cx="16.637868"
     inkscape:cy="13.130507"
     inkscape:window-x="0"
     inkscape:window-y="27"
     inkscape:window-maximized="1"
     inkscape:current-layer="surface1"
     inkscape:snap-grids="true" />
  <g
     id="surface1"
     transform="translate(0,-5.6825619)">
    <path
       style="fill:#000000;fill-opacity:1;fill-rule:nonzero;stroke:none;stroke-width:0.76957303"
       d="M 17.213185,10.278957 C 16.389501,8.8630626 15.268209,7.7447768 13.855321,6.9210935 12.442433,6.0944035 10.90028,5.6825619 9.2258578,5.6825619 c -1.6744224,0 -3.2165744,0.4118416 -4.6324687,1.2385316 C 3.1805007,7.7447768 2.0622156,8.8630626 1.2385316,10.278957 0.41184163,11.691845 0,13.233997 0,14.90842 c 0,2.008104 0.5861984,3.817804 1.7585944,5.423085 1.1754028,1.605281 2.6904997,2.717554 4.5482967,3.333814 0.2164424,0.03908 0.3757687,0.01203 0.4809832,-0.08417 0.1022093,-0.0962 0.1563203,-0.216443 0.1563203,-0.360737 0,-0.02405 -0.00301,-0.240492 -0.00601,-0.649328 -0.00601,-0.408835 -0.00902,-0.76356 -0.00902,-1.067181 l -0.2735586,0.0481 c -0.1773627,0.03006 -0.3998178,0.04509 -0.6673645,0.04209 -0.2675467,-0.006 -0.5471187,-0.03307 -0.8357086,-0.08417 C 4.8639417,21.455802 4.596395,21.335557 4.3468856,21.149176 4.1003813,20.959789 3.9230186,20.713285 3.8208101,20.409665 L 3.7005643,20.133099 C 3.6193982,19.949724 3.4931397,19.745306 3.3217897,19.519846 3.1504396,19.297391 2.9760836,19.144077 2.7987209,19.065918 l -0.084172,-0.06313 c -0.057117,-0.03908 -0.1082212,-0.08718 -0.1563195,-0.144295 -0.048098,-0.05411 -0.084172,-0.111227 -0.1082212,-0.165337 -0.024049,-0.05712 -0.00301,-0.102209 0.060123,-0.138283 0.063129,-0.03908 0.1803687,-0.05411 0.3487128,-0.05411 l 0.2404915,0.03607 c 0.1593255,0.03006 0.3577315,0.126257 0.5952163,0.285583 0.2344797,0.162332 0.4298789,0.369756 0.5801865,0.625279 0.1863806,0.327669 0.4088357,0.580185 0.6673637,0.751535 0.2615348,0.17135 0.5230688,0.258529 0.7876096,0.258529 0.2645407,0 0.4930084,-0.02104 0.6854017,-0.06012 0.1923933,-0.03908 0.3727612,-0.0992 0.5380993,-0.180367 C 7.0253596,19.679171 7.223766,19.267329 7.542417,18.978739 7.085483,18.930639 6.6766473,18.858493 6.312904,18.762297 5.9491605,18.6661 5.5703859,18.512787 5.1825934,18.296345 4.7948009,18.079903 4.4731433,17.809349 4.2146144,17.490698 3.9590923,17.16904 3.7486626,16.74818 3.5863304,16.228117 3.4209922,15.708054 3.3398269,15.106825 3.3398269,14.427437 c 0,-0.967979 0.315645,-1.794669 0.946935,-2.474058 -0.2946018,-0.730492 -0.2675467,-1.545158 0.084173,-2.4500078 0.2344789,-0.072147 0.5771798,-0.018037 1.0341138,0.1623322 0.456934,0.1803687 0.7906155,0.3336823 1.0040519,0.4599396 0.2104298,0.129265 0.3817806,0.237486 0.511045,0.324664 0.7425172,-0.207424 1.5120902,-0.312639 2.3057124,-0.312639 0.790616,0 1.560189,0.105215 2.305713,0.312639 l 0.456934,-0.28859 c 0.312639,-0.1923932 0.679389,-0.3667492 1.103255,-0.5260747 0.426872,-0.1623322 0.751536,-0.2044186 0.973991,-0.1322711 0.360737,0.9048498 0.393804,1.7195158 0.0962,2.4500078 0.634296,0.679389 0.949941,1.506079 0.949941,2.474058 0,0.679388 -0.08417,1.283624 -0.246504,1.806692 -0.165338,0.526076 -0.375768,0.946936 -0.637302,1.262581 -0.258529,0.315646 -0.583192,0.583193 -0.973991,0.799635 -0.387793,0.213436 -0.763561,0.369755 -1.127305,0.465952 -0.363743,0.0962 -0.775585,0.168344 -1.232519,0.216442 0.417855,0.360738 0.625278,0.928899 0.625278,1.70749 v 2.534181 c 0,0.144294 0.0511,0.26454 0.150307,0.360737 0.0992,0.0962 0.258529,0.123252 0.474971,0.08417 1.857797,-0.61626 3.372894,-1.728533 4.545291,-3.333814 1.172397,-1.605281 1.761601,-3.414981 1.761601,-5.423085 0,-1.674423 -0.414848,-3.216575 -1.238531,-4.629463 z m 0,0"
       id="path2"
       inkscape:connector-curvature="0" />
  </g>
</svg>
