<svg xmlns="http://www.w3.org/2000/svg" width="24" height="24" viewBox="0 0 24 24"><path d="M5.73-.02h1.08v1.07h1V-.02h1.07v3.24H7.8V2.14h-.98v1.08H5.73m4.58-2.16h-.96V-.02h3v1.08h-.97v2.16h-1.07m2.5-3.24h1.13l.7 1.14.7-1.14h1.12v3.24h-1.08v-1.6l-.75 1.16-.76-1.17v1.6h-1.06M17-.01h1.07v2.17h1.53v1.07H17" fill="#2b2726"/><path d="M5.7 22.06L4.14 4.7h17l-1.54 17.35-6.97 1.93" fill="#e44d26"/><path d="M12.65 22.5V6.13h6.95l-1.33 14.82" fill="#f16529"/><path d="M7.3 8.25h5.35v2.12h-3l.19 2.18h2.81v2.13H7.89m.1 1.07h2.13l.15 1.7 2.38.64v2.22l-4.37-1.22" fill="#ebebeb"/><path d="M17.98 8.25h-5.34v2.12h5.14m-.2 2.18h-4.94v2.13h2.63l-.25 2.77-2.38.64v2.2L17 19.1" fill="#fff"/></svg>