<?xml version="1.0" encoding="UTF-8" standalone="no"?>
<svg
   xmlns:dc="http://purl.org/dc/elements/1.1/"
   xmlns:cc="http://creativecommons.org/ns#"
   xmlns:rdf="http://www.w3.org/1999/02/22-rdf-syntax-ns#"
   xmlns:svg="http://www.w3.org/2000/svg"
   xmlns="http://www.w3.org/2000/svg"
   xmlns:sodipodi="http://sodipodi.sourceforge.net/DTD/sodipodi-0.dtd"
   xmlns:inkscape="http://www.inkscape.org/namespaces/inkscape"
   id="svg4525"
   viewBox="0 0 2.7983629 2.7984"
   width="24"
   height="24"
   version="1.1"
   sodipodi:docname="JS2.svg"
   inkscape:version="0.92.3 (2405546, 2018-03-11)">
  <metadata
     id="metadata14">
    <rdf:RDF>
      <cc:Work
         rdf:about="">
        <dc:format>image/svg+xml</dc:format>
        <dc:type
           rdf:resource="http://purl.org/dc/dcmitype/StillImage" />
        <dc:title></dc:title>
      </cc:Work>
    </rdf:RDF>
  </metadata>
  <defs
     id="defs12" />
  <sodipodi:namedview
     pagecolor="#ffffff"
     bordercolor="#666666"
     borderopacity="1"
     objecttolerance="10"
     gridtolerance="10"
     guidetolerance="10"
     inkscape:pageopacity="0"
     inkscape:pageshadow="2"
     inkscape:window-width="967"
     inkscape:window-height="1025"
     id="namedview10"
     showgrid="false"
     inkscape:zoom="8.2103582"
     inkscape:cx="9.9058581"
     inkscape:cy="-2.1092251"
     inkscape:window-x="953"
     inkscape:window-y="27"
     inkscape:window-maximized="0"
     inkscape:current-layer="svg4525">
    <inkscape:grid
       type="xygrid"
       id="grid965" />
  </sodipodi:namedview>
  <style
     id="style2">.st0{fill:#d4b830}.st1,.st2{opacity:.986;fill:#ebebeb;fill-opacity:0;enable-background:new}.st2{fill-opacity:.9216}.st3{fill:#fdd83c}</style>
  <g
     id="g5193"
     transform="matrix(0.00765674,0,0,0.00765674,0.54253658,-0.31080675)">
    <path
       id="path5113"
       class="st0"
       d="M 18.8,375.4 -5,113.4 251.4,113.5 227.8,375.2 123,404.8 Z m 189.7,-14.3 19.9,-224.4 h -105 l 0.8,247.5 z M 113.6,169.6 H 88.1 l -0.3,134.3 -49.5,-13.5 0.1,30.7 75.2,20.3 z"
       inkscape:connector-curvature="0"
       style="fill:#d4b830" />
    <path
       id="path5159"
       class="st1"
       d="m 105.2,338.9 c -3.3,-1 -19.6,-5.4 -36.2,-9.9 l -30.1,-8.1 v -15.1 c 0,-14.8 0,-15.1 1.5,-14.6 0.8,0.3 11.8,3.3 24.4,6.8 l 22.9,6.3 0.2,-67 0.2,-67 h 25 v 85.2 c 0,67.7 -0.2,85.2 -0.9,85.2 -0.5,-0.1 -3.7,-0.9 -7,-1.8 z"
       inkscape:connector-curvature="0"
       style="opacity:0.98600003;fill:#ebebeb;fill-opacity:0;enable-background:new" />
    <path
       id="path5157"
       class="st2"
       d="m 38.4,321.1 -0.1,-30.7 c 0,0 31.6,8.9 49.5,13.5 l 0.3,-134.2 h 25.5 v 171.7 z"
       inkscape:connector-curvature="0"
       style="opacity:0.98600003;fill:#ebebeb;fill-opacity:0.92159998;enable-background:new" />
    <path
       id="path5117"
       class="st3"
       d="m 123.4,136.6 h 105 L 208.5,361 123.4,384.1 Z m 79.7,186.8 6.9,-83.9 -51,5.7 v -44.8 l 54.4,-0.2 2.2,-30.6 -82.1,0.4 1.1,111.4 49.6,-8.5 -0.7,24.8 -50,13.3 0.5,30.4 z"
       inkscape:connector-curvature="0"
       style="fill:#fdd83c" />
  </g>
  <g
     id="g910"
     transform="matrix(0.12437333,0,0,0.12437333,127.6833,-147.87908)">
    <path
       id="path887"
       d="M 11.31,22.54 4.81,20.73 3.34,4.46 H 19.3 l -1.45,16.27 z"
       inkscape:connector-curvature="0"
       style="fill:#264de4" />
    <path
       id="path889"
       d="M 11.32,21.15 16.6,19.69 17.84,5.79 H 11.32 Z"
       inkscape:connector-curvature="0"
       style="fill:#2965f1" />
    <path
       id="path891"
       d="M 11.32,11.82 H 6.68 l 0.18,2 h 4.46 z m -5,-4.04 0.18,2 h 4.82 v -2 z m 0.9,10.17 4.1,1.13 V 17.01 L 9.09,16.41 8.95,14.81 H 6.94 Z"
       inkscape:connector-curvature="0"
       style="fill:#ebebeb" />
    <path
       id="path893"
       d="m 7.1,0.04 h 2.42 v 1 h -1.4 v 1.02 h 1.4 v 1 H 7.1 Z m 2.9,0 h 2.42 v 0.88 h -1.4 v 0.17 h 1.4 V 3.11 H 10 V 2.2 h 1.4 V 2.02 H 10 Z m 2.9,0 h 2.42 v 0.88 h -1.4 v 0.17 h 1.4 V 3.11 H 12.9 V 2.2 h 1.41 V 2.02 h -1.4 z"
       inkscape:connector-curvature="0" />
    <path
       id="path895"
       d="m 15.95,11.82 0.36,-4.04 h -5 v 2 h 2.82 l -0.19,2.04 h -2.63 v 2 h 2.46 l -0.23,2.59 -2.23,0.6 v 2.07 l 4.1,-1.13 0.03,-0.34 0.46,-5.25 z"
       inkscape:connector-curvature="0"
       style="fill:#ffffff" />
  </g>
  <path
     style="fill:#2b2726"
     id="path893-3"
     d="m 1.1448414,0.00111304 h 0.30098 v 0.12437 0 l -0.0859,-2.8e-4 7.4e-4,0.25256 -0.2158,-0.001 v -0.0993 l 0.10175,-0.001 -6.4e-4,-0.15033 -0.10023,-1.6e-4 z m 0.36068,0 h 0.30098 v 0.10945 h -0.17412 v 0.0211 h 0.17412 v 0.25124 h -0.30098 v -0.11318 h 0.17412 v -0.0224 h -0.17412 z"
     inkscape:connector-curvature="0"
     sodipodi:nodetypes="ccccccccccccccccccccccccc" />
</svg>
