<?xml version="1.0" encoding="UTF-8" standalone="no"?>
<svg
   xmlns:dc="http://purl.org/dc/elements/1.1/"
   xmlns:cc="http://creativecommons.org/ns#"
   xmlns:rdf="http://www.w3.org/1999/02/22-rdf-syntax-ns#"
   xmlns:svg="http://www.w3.org/2000/svg"
   xmlns="http://www.w3.org/2000/svg"
   xmlns:sodipodi="http://sodipodi.sourceforge.net/DTD/sodipodi-0.dtd"
   xmlns:inkscape="http://www.inkscape.org/namespaces/inkscape"
   width="24"
   height="24"
   version="1.2"
   viewBox="0 0 17.999989 18.000033"
   id="svg58"
   sodipodi:docname="NodeJS.svg"
   inkscape:version="0.92.3 (2405546, 2018-03-11)">
  <metadata
     id="metadata62">
    <rdf:RDF>
      <cc:Work
         rdf:about="">
        <dc:format>image/svg+xml</dc:format>
        <dc:type
           rdf:resource="http://purl.org/dc/dcmitype/StillImage" />
        <dc:title></dc:title>
      </cc:Work>
    </rdf:RDF>
  </metadata>
  <sodipodi:namedview
     pagecolor="#ffffff"
     bordercolor="#666666"
     borderopacity="1"
     objecttolerance="10"
     gridtolerance="10"
     guidetolerance="10"
     inkscape:pageopacity="0"
     inkscape:pageshadow="2"
     inkscape:window-width="1920"
     inkscape:window-height="1025"
     id="namedview60"
     showgrid="false"
     inkscape:zoom="18.943432"
     inkscape:cx="11.43008"
     inkscape:cy="7.5894194"
     inkscape:window-x="0"
     inkscape:window-y="27"
     inkscape:window-maximized="1"
     inkscape:current-layer="svg58" />
  <defs
     id="defs36">
    <clipPath
       id="a">
      <path
         d="m 239.03,226.605 -42.13,24.317 c -1.578,0.91 -2.546,2.59 -2.546,4.406 v 48.668 c 0,1.817 0.968,3.496 2.546,4.406 l 42.133,24.336 c 1.575,0.907 3.517,0.907 5.09,0 l 42.126,-24.336 c 1.57,-0.91 2.54,-2.59 2.54,-4.406 v -48.668 c 0,-1.816 -0.97,-3.496 -2.55,-4.406 l -42.12,-24.317 c -0.79,-0.453 -1.67,-0.68 -2.55,-0.68 -0.88,0 -1.76,0.227 -2.55,0.68"
         id="path2"
         inkscape:connector-curvature="0" />
    </clipPath>
    <linearGradient
       id="b"
       x1="-0.34799999"
       x2="1.251"
       gradientTransform="matrix(-38.064915,77.652126,-77.652126,-38.064915,258.72325,244.62943)"
       gradientUnits="userSpaceOnUse">
      <stop
         offset=".3"
         stop-color="#3E863D"
         id="stop5" />
      <stop
         offset=".5"
         stop-color="#55934F"
         id="stop7" />
      <stop
         offset=".8"
         stop-color="#5AAD45"
         id="stop9" />
    </linearGradient>
    <clipPath
       id="c">
      <path
         d="m 195.398,307.086 c 0.403,0.523 0.907,0.976 1.5,1.316 l 36.14,20.875 6.02,3.46 c 0.9,0.52 1.926,0.74 2.934,0.665 0.336,-0.027 0.672,-0.09 1,-0.183 l 44.434,-81.36 c -0.34,-0.37 -0.738,-0.68 -1.184,-0.94 l -27.586,-15.93 -14.582,-8.39 c -0.414,-0.24 -0.863,-0.41 -1.32,-0.53 z m 0,0"
         id="path12"
         inkscape:connector-curvature="0" />
    </clipPath>
    <linearGradient
       id="d"
       x1="-0.456"
       x2="0.58200002"
       gradientTransform="matrix(106.8057,-78.916731,78.916731,106.8057,235.18824,285.39477)"
       gradientUnits="userSpaceOnUse">
      <stop
         offset=".57"
         stop-color="#3E863D"
         id="stop15" />
      <stop
         offset=".72"
         stop-color="#619857"
         id="stop17" />
      <stop
         offset="1"
         stop-color="#76AC64"
         id="stop19" />
    </linearGradient>
    <clipPath
       id="e">
      <path
         d="m 241.066,225.953 c -0.707,0.07 -1.398,0.29 -2.035,0.652 l -42.01,24.247 45.3,82.51 c 0.63,-0.09 1.25,-0.3 1.81,-0.624 l 42.13,-24.336 c 1.3,-0.754 2.19,-2.03 2.46,-3.476 l -46.18,-78.89 c -0.34,-0.067 -0.68,-0.102 -1.03,-0.102 -0.14,0 -0.28,0.007 -0.42,0.02"
         id="path22"
         inkscape:connector-curvature="0" />
    </clipPath>
    <linearGradient
       id="f"
       x1="0.043000001"
       x2="0.98400003"
       gradientTransform="matrix(97.417,0,0,97.417,192.862,279.652)"
       gradientUnits="userSpaceOnUse">
      <stop
         offset=".16"
         stop-color="#6BBF47"
         id="stop25" />
      <stop
         offset=".38"
         stop-color="#79B461"
         id="stop27" />
      <stop
         offset=".47"
         stop-color="#75AC64"
         id="stop29" />
      <stop
         offset=".7"
         stop-color="#659E5A"
         id="stop31" />
      <stop
         offset=".9"
         stop-color="#3E863D"
         id="stop33" />
    </linearGradient>
  </defs>
  <path
     d="m 8.896206,15.000026 c -0.059408,0 -0.1184075,-0.01562 -0.1704909,-0.04557 L 8.183033,14.633168 c -0.081055,-0.04532 -0.041506,-0.06135 -0.014772,-0.07059 0.1080724,-0.03785 0.1300043,-0.04636 0.2453606,-0.111901 0.012126,-0.0069 0.027995,-0.0043 0.040403,0.0031 l 0.4169093,0.247394 c 0.015054,0.0081 0.036416,0.0081 0.050374,0 L 10.546873,13.76286 c 0.01505,-0.0086 0.02482,-0.02603 0.02482,-0.04397 v -1.875808 c 0,-0.01874 -0.0098,-0.0354 -0.02515,-0.04477 l -1.6249086,-0.93754 c -0.015054,-0.0089 -0.034996,-0.0089 -0.05005,0 L 7.246996,11.798269 c -0.015746,0.0089 -0.02576,0.02646 -0.02576,0.04434 v 1.875814 c 0,0.01788 0.00977,0.03497 0.025227,0.04354 l 0.4451487,0.257156 c 0.2416988,0.120849 0.3894029,-0.02156 0.3894029,-0.164792 v -1.851395 c 0,-0.02646 0.02075,-0.04679 0.047201,-0.04679 H 8.334108 c 0.025637,0 0.046791,0.02033 0.046791,0.04679 v 1.85221 c 0,0.322265 -0.1757807,0.507403 -0.4813623,0.507403 -0.093994,0 -0.1680498,0 -0.3747549,-0.101722 L 7.0983511,14.015058 C 6.9929637,13.953997 6.9278602,13.840094 6.9278602,13.71843 v -1.875814 c 0,-0.122067 0.065104,-0.236001 0.1704909,-0.296217 l 1.6271925,-0.938722 c 0.1029456,-0.05818 0.2396642,-0.05818 0.3417965,0 l 1.6251579,0.939126 c 0.10498,0.06063 0.170491,0.174156 0.170491,0.296224 v 1.875807 c 0,0.121664 -0.06551,0.235188 -0.170491,0.296224 l -1.6251579,0.938716 c -0.052083,0.03013 -0.1110839,0.04557 -0.1713049,0.04557"
     id="path38"
     inkscape:connector-curvature="0"
     style="fill:#689f63;stroke-width:0.04068999" />
  <path
     d="m 9.3983206,13.707467 c -0.7112609,0 -0.8603896,-0.326497 -0.8603896,-0.600342 0,-0.02603 0.020995,-0.04679 0.047079,-0.04679 h 0.2099603 c 0.023193,0 0.042725,0.0169 0.046387,0.03981 0.031737,0.213947 0.1261391,0.321855 0.556232,0.321855 0.3426097,0 0.4882799,-0.07739 0.4882799,-0.259073 0,-0.10457 -0.041506,-0.18229 -0.5737284,-0.234372 -0.4451488,-0.04397 -0.7202132,-0.142009 -0.7202132,-0.498045 0,-0.327961 0.2766917,-0.523278 0.7401509,-0.523278 0.520425,0 0.7783995,0.180667 0.8109525,0.56885 0.0012,0.01341 -0.0037,0.02646 -0.01262,0.0362 -0.009,0.0094 -0.02156,0.01507 -0.03458,0.01507 H 9.8846481 c -0.021975,0 -0.041095,-0.01543 -0.045573,-0.03662 -0.050864,-0.225015 -0.1737467,-0.297033 -0.5078116,-0.297033 -0.3739409,0 -0.4174788,0.130207 -0.4174788,0.227863 0,0.118405 0.051268,0.152996 0.5558253,0.219729 0.4996727,0.06632 0.736896,0.15991 0.736896,0.511065 0,0.354003 -0.2954097,0.557042 -0.810545,0.557042 m 1.979976,-1.989331 h 0.05453 c 0.04476,0 0.0533,-0.03136 0.0533,-0.04967 0,-0.04802 -0.03296,-0.04802 -0.05127,-0.04802 h -0.05616 z m -0.06633,-0.153811 h 0.120849 c 0.04151,0 0.122885,0 0.122885,0.09277 0,0.0647 -0.04151,0.07812 -0.06633,0.08626 0.04842,0.0031 0.05168,0.03497 0.05819,0.07975 0.0032,0.02805 0.0085,0.07649 0.01831,0.09277 h -0.07446 c -0.002,-0.01629 -0.01342,-0.105795 -0.01342,-0.110676 -0.0049,-0.01997 -0.0118,-0.0297 -0.03662,-0.0297 h -0.06144 v 0.140784 h -0.06796 z m -0.145263,0.174971 c 0,0.145671 0.117595,0.263672 0.262044,0.263672 0.14567,0 0.263263,-0.120444 0.263263,-0.263672 0,-0.146082 -0.119221,-0.262043 -0.263671,-0.262043 -0.142415,0 -0.262043,0.114338 -0.262043,0.261633 m 0.57617,0.0012 c 0,0.172521 -0.141194,0.313311 -0.313313,0.313311 -0.170898,0 -0.313313,-0.139161 -0.313313,-0.313311 0,-0.177409 0.14567,-0.313318 0.313313,-0.313318 0.168863,0 0.312906,0.136313 0.312906,0.313318"
     id="path40"
     inkscape:connector-curvature="0"
     style="fill:#689f63;stroke-width:0.04068999" />
  <path
     d="m 3.8624063,7.6603637 c 0,-0.07487 -0.039469,-0.143632 -0.104085,-0.180863 L 2.0348559,6.4878818 c -0.029093,-0.017087 -0.061686,-0.026029 -0.094726,-0.027254 h -0.017822 c -0.033041,0.00122 -0.065633,0.010167 -0.095215,0.027254 l -1.72338394,0.991619 c -0.06420876,0.03743 -0.1042477099,0.106199 -0.1042477099,0.181071 l 0.00378417,2.6708902 c 0,0.03705 0.01912429,0.07161 0.05167629,0.08992 0.0317382,0.01954 0.07161439,0.01954 0.10335259,0 L 1.1828481,9.8346364 c 0.064697,-0.03852 0.1041664,-0.10653 0.1041664,-0.180667 V 8.4062117 c 0,-0.07446 0.039469,-0.143228 0.1039629,-0.180256 l 0.4361968,-0.251221 c 0.032389,-0.01874 0.067952,-0.02799 0.1041664,-0.02799 0.035645,0 0.072021,0.0092 0.1035153,0.02799 l 0.4359933,0.251135 c 0.064534,0.03705 0.1041664,0.105795 0.1041664,0.180256 v 1.2476787 c 0,0.07406 0.039998,0.142413 0.1043698,0.180667 l 1.0239231,0.5863406 c 0.032145,0.01911 0.072143,0.01911 0.1041663,0 0.031575,-0.01831 0.051595,-0.05292 0.051595,-0.08993 z m 8.1326277,1.3906237 c 0,0.01862 -0.0099,0.03583 -0.02604,0.04501 l -0.591958,0.3412269 c -0.01607,0.0092 -0.03593,0.0092 -0.05196,0 L 10.733038,9.0959974 c -0.01628,-0.0092 -0.02604,-0.02646 -0.02604,-0.04501 V 8.3675597 c 0,-0.01862 0.0098,-0.03583 0.02564,-0.0452 l 0.591633,-0.341797 c 0.01628,-0.0094 0.03621,-0.0094 0.05249,0 l 0.59204,0.341797 c 0.01628,0.0094 0.02604,0.02652 0.02604,0.0452 z m 0.159912,-5.0619165 c -0.03231,-0.018006 -0.07161,-0.017516 -0.103516,0.00122 -0.03174,0.018741 -0.05135,0.052916 -0.05135,0.089926 v 2.6448548 c 0,0.026029 -0.01384,0.050037 -0.03637,0.06307 -0.02238,0.013045 -0.05025,0.013045 -0.07284,0 L 11.459147,6.5394869 c -0.06429,-0.037176 -0.143473,-0.037176 -0.208007,0 L 9.5271049,7.5344807 c -0.064413,0.03705 -0.1041668,0.105788 -0.1041668,0.179846 v 1.9905557 c 0,0.07446 0.039754,0.142824 0.1041668,0.180257 L 11.25114,10.880824 c 0.06437,0.03705 0.143636,0.03705 0.208211,0 l 1.724035,-0.9960956 c 0.06429,-0.03742 0.104166,-0.105788 0.104166,-0.180256 V 4.7435489 c 0,-0.075521 -0.0411,-0.1449793 -0.107015,-0.1818856 z m 5.741073,4.3605017 c 0.06405,-0.03718 0.103475,-0.1058749 0.103475,-0.179932 v -0.482421 c 0,-0.07422 -0.03947,-0.142701 -0.103638,-0.180055 L 16.182808,6.5127044 c -0.0647,-0.037421 -0.144043,-0.037421 -0.20874,0 L 14.25044,7.5075757 c -0.0647,0.03742 -0.104166,0.105794 -0.104166,0.180256 v 1.9897417 c 0,0.07487 0.04028,0.144042 0.10498,0.181071 l 1.712641,0.9761476 c 0.06307,0.0362 0.140381,0.03663 0.204264,0.0012 l 1.035967,-0.575765 c 0.03255,-0.01831 0.0533,-0.05292 0.0533,-0.09033 0,-0.03742 -0.01994,-0.07243 -0.05249,-0.09074 L 15.470729,9.0838824 c -0.03255,-0.01831 -0.05249,-0.05292 -0.05249,-0.08993 V 8.3697677 c 0,-0.0373 0.01953,-0.07161 0.05208,-0.09017 l 0.53955,-0.311278 c 0.03215,-0.01874 0.07161,-0.01874 0.103759,0 l 0.539956,0.311278 c 0.03215,0.01831 0.05208,0.05292 0.05208,0.08993 v 0.4907197 c 0,0.03705 0.01994,0.07161 0.05208,0.09034 0.03215,0.01831 0.07202,0.01831 0.104166,-4.101e-4 z m 0,0"
     id="path42"
     inkscape:connector-curvature="0"
     style="fill:#333333;fill-rule:evenodd;stroke-width:0.04068999" />
  <path
     d="m 16.05321,8.2564737 c 0.01221,-0.0072 0.02751,-0.0072 0.03988,0 l 0.33081,0.190834 c 0.01237,0.0072 0.01994,0.02033 0.01994,0.0346 v 0.3820767 c 0,0.01421 -0.0076,0.02744 -0.01994,0.0346 l -0.33081,0.190839 c -0.01237,0.0072 -0.02767,0.0072 -0.03988,0 l -0.330606,-0.190839 c -0.01262,-0.0072 -0.02035,-0.02033 -0.02035,-0.0346 V 8.4819077 c 0,-0.01427 0.0073,-0.02744 0.01994,-0.0346 z m 0,0"
     id="path44"
     inkscape:connector-curvature="0"
     style="fill:#689f63;fill-rule:evenodd;stroke-width:0.04068999" />
  <g
     clip-path="url(#a)"
     transform="matrix(0.04068999,0,0,0.04068999,-3.1868097,-2.6979227)"
     id="g48">
    <path
       d="m 331.363,246.793 -118.715,-58.19 -60.87,124.174 118.712,58.193 z m 0,0"
       id="path46"
       style="fill:url(#b)"
       inkscape:connector-curvature="0" />
  </g>
  <g
     clip-path="url(#c)"
     transform="matrix(0.04068999,0,0,0.04068999,-3.1868097,-2.6979227)"
     id="g52">
    <path
       d="m 144.07,264.004 83.825,113.453 110.86,-81.906 -83.83,-113.45 z m 0,0"
       id="path50"
       style="fill:url(#d)"
       inkscape:connector-curvature="0" />
  </g>
  <g
     clip-path="url(#e)"
     transform="matrix(0.04068999,0,0,0.04068999,-3.1868097,-2.6979227)"
     id="g56">
    <path
       d="m 197.02,225.934 v 107.43 h 91.683 v -107.43 z m 0,0"
       id="path54"
       style="fill:url(#f)"
       inkscape:connector-curvature="0" />
  </g>
</svg>
