<svg xmlns="http://www.w3.org/2000/svg" width="24" height="24" version="1.2" viewBox="0 0 18 18"><defs><clipPath id="a"><path d="M239.03 226.6l-42.13 24.32a5.08 5.08 0 0 0-2.55 4.4V304c0 1.81.97 3.5 2.55 4.4l42.13 24.34c1.58.9 3.52.9 5.1 0l42.12-24.34a5.1 5.1 0 0 0 2.54-4.4v-48.67c0-1.82-.97-3.5-2.55-4.4l-42.12-24.33a5.12 5.12 0 0 0-5.1 0"/></clipPath><linearGradient id="b" x1="-.35" x2="1.25" gradientTransform="rotate(116.11 53.1 202.97) scale(86.48)" gradientUnits="userSpaceOnUse"><stop offset=".3" stop-color="#3E863D"/><stop offset=".5" stop-color="#55934F"/><stop offset=".8" stop-color="#5AAD45"/></linearGradient><clipPath id="c"><path d="M195.4 307.09c.4.52.9.97 1.5 1.31l36.14 20.88 6.02 3.46a5.1 5.1 0 0 0 3.93.48l44.44-81.36a5.04 5.04 0 0 0-1.19-.94l-27.58-15.93-14.59-8.4a5.32 5.32 0 0 0-1.32-.52zm0 0"/></clipPath><linearGradient id="d" x1="-.46" x2=".58" gradientTransform="scale(132.798) rotate(-36.46 4.15 -1.61)" gradientUnits="userSpaceOnUse"><stop offset=".57" stop-color="#3E863D"/><stop offset=".72" stop-color="#619857"/><stop offset="1" stop-color="#76AC64"/></linearGradient><clipPath id="e"><path d="M241.07 225.95c-.71.07-1.4.3-2.04.66l-42 24.24 45.3 82.51c.62-.09 1.24-.3 1.8-.62l42.13-24.34a5.1 5.1 0 0 0 2.46-3.47l-46.18-78.9a5.3 5.3 0 0 0-1.45-.08"/></clipPath><linearGradient id="f" x1=".04" x2=".98" gradientTransform="translate(192.86 279.65) scale(97.417)" gradientUnits="userSpaceOnUse"><stop offset=".16" stop-color="#6BBF47"/><stop offset=".38" stop-color="#79B461"/><stop offset=".47" stop-color="#75AC64"/><stop offset=".7" stop-color="#659E5A"/><stop offset=".9" stop-color="#3E863D"/></linearGradient></defs><path d="M8.9 15a.34.34 0 0 1-.17-.05l-.55-.32c-.08-.04-.04-.06-.01-.07.1-.04.13-.04.24-.1.02-.02.03-.01.04 0l.42.24h.05l1.63-.94.02-.04v-1.88a.05.05 0 0 0-.02-.04l-1.63-.94h-.05l-1.62.94a.05.05 0 0 0-.03.04v1.88c0 .02.01.03.03.04l.44.26c.24.12.4-.02.4-.17V12c0-.02.01-.04.04-.04h.2c.03 0 .05.02.05.04v1.86c0 .32-.17.5-.48.5-.1 0-.17 0-.38-.1l-.42-.24a.34.34 0 0 1-.17-.3v-1.88c0-.12.06-.23.17-.3l1.63-.93c.1-.06.24-.06.34 0l1.62.94c.1.06.17.17.17.3v1.87c0 .12-.06.23-.17.3l-1.62.93a.34.34 0 0 1-.17.05" fill="#689f63"/><path d="M9.4 13.7c-.71 0-.86-.32-.86-.6 0-.02.02-.04.05-.04h.2c.03 0 .05.02.05.04.03.21.13.32.56.32.34 0 .49-.08.49-.26 0-.1-.05-.18-.58-.23-.44-.05-.72-.14-.72-.5 0-.33.28-.52.74-.52.52 0 .78.18.81.57a.05.05 0 0 1-.04.05h-.22a.05.05 0 0 1-.04-.04c-.05-.22-.17-.3-.5-.3-.38 0-.43.13-.43.23 0 .12.06.15.56.22s.74.16.74.51c0 .36-.3.56-.81.56m1.98-1.99h.05c.05 0 .05-.03.05-.05 0-.05-.03-.05-.05-.05h-.05zm-.07-.15h.12c.04 0 .12 0 .12.09 0 .06-.04.08-.06.09.05 0 .05.03.06.08l.01.09h-.07l-.01-.11c0-.02-.02-.03-.04-.03h-.06v.14h-.07zM11.74 11.74c0 .17-.14.32-.31.32a.31.31 0 0 1 0-.63c.17 0 .31.14.31.31" fill="#689f63"/><path d="M3.86 7.66a.2.2 0 0 0-.1-.18l-1.73-1a.2.2 0 0 0-.09-.02h-.02a.2.2 0 0 0-.1.03L.1 7.48c-.06.04-.1.1-.1.18v2.67c0 .04.02.07.05.1a.1.1 0 0 0 .1 0l1.03-.6c.07-.03.1-.1.1-.18V8.41a.2.2 0 0 1 .11-.18l.44-.26a.2.2 0 0 1 .2 0l.44.26c.07.03.1.1.1.18v1.24c0 .08.05.15.1.18l1.03.6a.1.1 0 0 0 .1 0 .1.1 0 0 0 .06-.1zM12 9.06l-.03.04-.6.34h-.04l-.6-.34a.05.05 0 0 1-.02-.05v-.68c0-.02 0-.04.02-.05l.6-.34h.05l.59.34c.02.01.02.03.02.05zm.15-5.07a.1.1 0 0 0-.15.09v2.65a.07.07 0 0 1-.1.06l-.44-.25a.2.2 0 0 0-.2 0l-1.73 1a.2.2 0 0 0-.1.17v2c0 .07.03.14.1.18l1.72 1a.2.2 0 0 0 .2 0l1.73-1a.2.2 0 0 0 .1-.19V4.74a.2.2 0 0 0-.1-.18zm5.75 4.36a.2.2 0 0 0 .1-.18v-.48a.2.2 0 0 0-.1-.18l-1.72-1a.2.2 0 0 0-.2 0l-1.73 1a.2.2 0 0 0-.1.18v1.99c0 .07.04.14.1.18l1.71.97a.2.2 0 0 0 .2 0l1.04-.57a.1.1 0 0 0 0-.18l-1.73-1a.1.1 0 0 1-.05-.09v-.62a.1.1 0 0 1 .05-.09l.54-.31a.1.1 0 0 1 .1 0l.54.31a.1.1 0 0 1 .06.09v.49c0 .04.02.07.05.1a.1.1 0 0 0 .1-.01zm0 0" fill="#333" fill-rule="evenodd"/><path d="M16.05 8.26h.04l.33.19c.02 0 .02.02.02.03v.38c0 .02 0 .03-.02.04l-.33.19h-.04l-.33-.2a.04.04 0 0 1-.02-.03v-.38l.02-.03zm0 0" fill="#689f63" fill-rule="evenodd"/><g clip-path="url(#a)" transform="matrix(.04069 0 0 .04069 -3.19 -2.7)"><path d="M331.36 246.8l-118.71-58.2-60.87 124.18 118.71 58.19zm0 0" fill="url(#b)"/></g><g clip-path="url(#c)" transform="matrix(.04069 0 0 .04069 -3.19 -2.7)"><path d="M144.07 264l83.83 113.46 110.85-81.9-83.83-113.46zm0 0" fill="url(#d)"/></g><g clip-path="url(#e)" transform="matrix(.04069 0 0 .04069 -3.19 -2.7)"><path d="M197.02 225.93v107.43h91.68V225.93zm0 0" fill="url(#f)"/></g></svg>