<svg xmlns="http://www.w3.org/2000/svg" viewBox="0 0 24 24"><path d="M5 2.64a2.39 2.39 0 0 0-2.4 2.73 18.4 18.4 0 0 0 15.98 15.94h.33a2.4 2.4 0 0 0 2.4-2.4v-3a2.4 2.4 0 0 0-1.98-2.32l.1.01c-.34 0-.6-.1-.8-.14-.47-.1-.93-.24-1.38-.4a1.39 1.39 0 0 0-1.73.7l-.5 1.01-.55-.3a12.78 12.78 0 0 1-4.9-4.9l-.26-.48.91-.61.04-.02a1.4 1.4 0 0 0 .7-1.73 10.9 10.9 0 0 1-.54-2.12v.02a2.4 2.4 0 0 0-2.4-1.99H5zm.07.82h2.99a1.6 1.6 0 0 1 1.6 1.26v.04l.14.77c.12.5.26.99.44 1.47l.2.52-1.9.88h-.01c-.2.1-.3.33-.2.54a13.89 13.89 0 0 0 6.7 6.7c.1.03.2.03.3 0v-.01h.02a.4.4 0 0 0 .23-.21l.84-1.9.52.19c.5.17 1 .32 1.51.43.25.06.5.1.77.15h.04a1.6 1.6 0 0 1 1.26 1.6l.02 3.1V19c0 .46-.2.9-.54 1.2-.36.31-.83.45-1.3.4A17.6 17.6 0 0 1 3.47 5.3v-.01c-.05-.46.1-.92.4-1.28.3-.35.74-.55 1.2-.55z" fill="#d7d7d7"/></svg>