<svg xmlns="http://www.w3.org/2000/svg" width="24" height="24" viewBox="0 0 6.35 6.35"><g stroke="#fff" stroke-opacity=".999" fill="none" transform="translate(0 -290.65)"><rect transform="scale(1.2809 .59942) rotate(45)" ry=".049" y="341.498" x="345.036" height="2.813" width="2.813" stroke-width=".372" stroke-linejoin="round" paint-order="markers fill stroke"/><path d="M1.687 292.732l-.017 2.823M4.786 292.665l.016 2.94" stroke-width=".265"/><path d="M1.67 295.555c.242.195.501.37.784.5.237.108.492.182.753.2a1.8 1.8 0 0 0 .676-.086c.262-.085.503-.226.72-.395.068-.053.135-.11.2-.169" stroke-width=".265" stroke-linecap="round" stroke-linejoin="round"/><path d="M3.174 292.03c.414.274 1.25.323 1.244.82l-.008.717" stroke-width=".265" stroke-linecap="round"/><path d="M4.197 293.932c.08-.09.183-.374.239-.268l.14.268" stroke-width=".253" stroke-linecap="round"/></g></svg>