<svg xmlns="http://www.w3.org/2000/svg" data-name="Layer 1" viewBox="0 0 24 24"><path d="M7 1.6a.45.45 0 0 0-.29.1c-.06.06-.11.12-.11.3v1.6H5A2.4 2.4 0 0 0 2.6 6v14A2.4 2.4 0 0 0 5 22.4h14a2.4 2.4 0 0 0 2.4-2.4V6A2.4 2.4 0 0 0 19 3.6h-1.6V2c0-.18-.05-.24-.11-.3a.45.45 0 0 0-.29-.1.45.45 0 0 0-.29.1c-.06.06-.11.12-.11.3v1.6H7.4V2c0-.18-.05-.24-.11-.3A.45.45 0 0 0 7 1.6zM5 4.4h1.6V6c0 .18.05.24.11.3s.17.1.29.1c.12 0 .23-.04.29-.1.06-.06.11-.12.11-.3V4.4h9.2V6c0 .18.05.24.11.3s.17.1.29.1c.12 0 .23-.04.29-.1.06-.06.11-.12.11-.3V4.4H19c.88 0 1.6.72 1.6 1.6v3.6H3.4V6c0-.88.72-1.6 1.6-1.6zm-1.6 6h17.2V20c0 .88-.72 1.6-1.6 1.6H5A1.6 1.6 0 0 1 3.4 20v-9.6zm3.67 3.2a.4.4 0 0 0-.22.03c-.15.06-.25.17-.25.37 0 .23.17.4.4.4.2 0 .3-.1.37-.25.06-.14.06-.29-.09-.43a.39.39 0 0 0-.21-.12zm5 0a.4.4 0 0 0-.22.03c-.15.06-.25.17-.25.37 0 .23.17.4.4.4.2 0 .3-.1.37-.25.06-.14.06-.29-.09-.43a.39.39 0 0 0-.21-.12zm5 0a.4.4 0 0 0-.22.03c-.15.06-.25.17-.25.37 0 .23.17.4.4.4.2 0 .3-.1.37-.25.06-.14.06-.29-.09-.43a.39.39 0 0 0-.21-.12zm-10 4a.4.4 0 0 0-.22.03c-.15.06-.25.17-.25.37 0 .23.17.4.4.4.2 0 .3-.1.37-.25.06-.14.06-.29-.09-.43a.39.39 0 0 0-.21-.12zm5 0a.4.4 0 0 0-.22.03c-.15.06-.25.17-.25.37 0 .23.17.4.4.4.2 0 .3-.1.37-.25.06-.14.06-.29-.09-.43a.39.39 0 0 0-.21-.12zm5 0a.4.4 0 0 0-.22.03c-.15.06-.25.17-.25.37 0 .23.17.4.4.4.2 0 .3-.1.37-.25.06-.14.06-.29-.09-.43a.39.39 0 0 0-.21-.12z" fill="#d7d7dc"/></svg>