<svg xmlns="http://www.w3.org/2000/svg" width="24" height="24" viewBox="0 0 22.5 22.5"><path fill="#264de4" d="M11.31 22.54l-6.5-1.81L3.34 4.46H19.3l-1.45 16.27z"/><path fill="#2965f1" d="M11.32 21.15l5.28-1.46 1.24-13.9h-6.52z"/><path fill="#ebebeb" d="M11.32 11.82H6.68l.18 2h4.46zM6.32 7.78l.18 2h4.82v-2zM7.22 17.95l4.1 1.13v-2.07l-2.23-.6-.14-1.6H6.94z"/><path d="M7.1.04h2.42v1h-1.4v1.02h1.4v1H7.1zM10 .04h2.42v.88h-1.4v.17h1.4v2.02H10V2.2h1.4v-.18H10zM12.9.04h2.42v.88h-1.4v.17h1.4v2.02H12.9V2.2h1.41v-.18h-1.4z" fill="#2b2726"/><path fill="#fff" d="M15.95 11.82l.36-4.04h-5v2h2.82l-.19 2.04h-2.63v2h2.46l-.23 2.59-2.23.6v2.07l4.1-1.13.03-.34.46-5.25z"/></svg>