<svg xmlns="http://www.w3.org/2000/svg" width="32" height="32" viewBox="0 0 24 24"><path fill="#2b2726" d="M22.37 6.27A11.9 11.9 0 0 0 11.99.29 11.89 11.89 0 0 0 0 12.28c0 2.61.76 4.96 2.29 7.05a11.76 11.76 0 0 0 5.9 4.33c.29.05.5.02.63-.1.13-.13.2-.29.2-.48v-.84L9 20.85l-.35.06c-.23.04-.52.06-.87.06s-.71-.04-1.08-.11a2.5 2.5 0 0 1-1.05-.47 1.99 1.99 0 0 1-.69-.96l-.15-.36a4.1 4.1 0 0 0-.5-.8 1.85 1.85 0 0 0-.67-.59l-.11-.08a1.02 1.02 0 0 1-.35-.4c-.03-.07 0-.13.08-.18.08-.05.24-.07.45-.07l.32.05c.2.04.46.16.77.37.3.2.56.48.75.81.25.43.54.75.87.98.34.22.68.33 1.03.33.34 0 .64-.03.89-.08s.48-.12.7-.23c.09-.7.35-1.23.76-1.61-.6-.06-1.12-.16-1.6-.28a6.36 6.36 0 0 1-1.47-.6 4.3 4.3 0 0 1-1.25-1.05c-.34-.42-.6-.97-.82-1.64a7.74 7.74 0 0 1-.32-2.34c0-1.26.41-2.34 1.23-3.22-.38-.95-.35-2 .11-3.18.3-.1.75-.03 1.34.2A9.85 9.85 0 0 1 9 6.5a11.1 11.1 0 0 1 6 0l.59-.38c.4-.25.88-.47 1.43-.68.56-.21.98-.27 1.27-.17.47 1.17.5 2.23.12 3.18a4.54 4.54 0 0 1 1.24 3.22c0 .88-.11 1.66-.32 2.34a4.81 4.81 0 0 1-.83 1.64c-.34.41-.76.76-1.27 1.04-.5.28-.99.48-1.46.6-.47.13-1.01.23-1.6.29.54.47.8 1.2.8 2.22v3.3c0 .18.08.34.2.46.13.13.34.16.62.11 2.42-.8 4.38-2.25 5.9-4.33a11.66 11.66 0 0 0 2.3-7.05c0-2.17-.54-4.18-1.61-6.01zm0 0"/></svg>