<svg xmlns="http://www.w3.org/2000/svg" viewBox="0 0 2.8 2.8" width="24" height="24"><path d="M.69 2.56L.5.56h1.97l-.18 2-.8.23zm1.45-.1L2.29.73h-.8v1.9zM1.4.98h-.2v1.03l-.37-.1v.23l.57.15z" fill="#d4b830"/><path d="M1.35 2.28l-.28-.07-.23-.06v-.12l.01-.11.19.05.17.05V.99h.2V2.3c-.01 0-.04 0-.06-.02z" opacity=".99" fill="none"/><path d="M.84 2.15V1.9l.37.1V1h.2V2.3z" opacity=".99" fill="#ebebeb" fill-opacity=".92"/><path d="M1.49.74h.8l-.15 1.71-.65.18zm.6 1.43l.06-.65-.39.05v-.35h.42L2.19 1h-.63l.01.85.38-.06v.19l-.39.1v.23z" fill="#fdd83c"/><g><path d="M129.09-145.08l-.8-.22-.2-2.02h2l-.19 2.02z" fill="#264de4"/><path d="M129.1-145.25l.65-.18.15-1.73h-.8z" fill="#2965f1"/><path d="M129.1-146.4h-.59l.03.24h.55zm-.63-.51l.02.25h.6v-.25zm.11 1.26l.51.14v-.25l-.28-.08-.01-.2h-.25z" fill="#ebebeb"/><path d="M128.57-147.87h.3v.12h-.18v.13h.18v.12h-.3zm.36 0h.3v.1h-.18v.03h.18v.25h-.3v-.12h.17v-.02h-.17zm.36 0h.3v.1h-.18v.03h.18v.25h-.3v-.12h.17v-.02h-.17z"/><path d="M129.67-146.4l.04-.51h-.62v.25h.35l-.02.25h-.33v.25h.3l-.02.32-.28.08v.25l.51-.14v-.04l.06-.65z" fill="#fff"/></g><path d="M1.14 0h.3v.13h-.08v.25h-.22v-.1h.1V.13h-.1zm.37 0h.3v.11h-.18v.02h.18v.25h-.3V.27h.17V.25h-.17z" fill="#2b2726"/></svg>