<svg xmlns="http://www.w3.org/2000/svg" data-name="Layer 1" viewBox="0 0 24 24"><path d="M11 2.6a.4.4 0 0 0-.4.4v3.6H7A3.4 3.4 0 0 0 3.6 10v6c0 .23.17.4.4.4h6.6V21c0 .18.05.24.11.3s.17.1.29.1c.12 0 .23-.04.29-.1.06-.06.11-.12.11-.3v-4.6H20a.4.4 0 0 0 .4-.4v-6A3.4 3.4 0 0 0 17 6.6h-5.6V3.4H13c.18 0 .24-.05.3-.11s.1-.17.1-.29a.45.45 0 0 0-.1-.29c-.06-.06-.12-.11-.3-.11h-2zM7 7.4h7.62l-.55.9c-.3.52-.47 1.1-.47 1.7v5.6H4.4V10A2.6 2.6 0 0 1 7 7.4zm10 0c.63 0 1.27.2 1.77.65.5.44.83 1.13.83 1.95v5.6h-5.2V10c0-.82.33-1.5.83-1.95.5-.44 1.14-.65 1.77-.65zm-9 3.2c-.18 0-.24.05-.3.11a.45.45 0 0 0-.1.29c0 .12.04.23.1.29.06.06.12.11.3.11h2c.18 0 .24-.05.3-.11s.1-.17.1-.29a.45.45 0 0 0-.1-.29c-.06-.06-.12-.11-.3-.11H8z" fill="#d7d7d7"/></svg>